<svg width="1440" height="834" version="1.1" id="svgMap" viewBox="0 0 1440 834" xmlns="http://www.w3.org/2000/svg"
     xmlns:xlink="http://www.w3.org/1999/xlink">
    <g id="perspective" transform="scale(1,1) translate(0, 0)">
        <g class="layer" fill="#52a3f5" stroke="#b1d9fc" stroke-width="1" font-size="11" font-family="SimSun"
           id="svgMapBj">
            <path autoSize="true"
                  d="M822.9287853592559 377.38527410483584 L819.7435837391859 375.7597072375793 L813.6349726875542 375.7073208053371 L813.6300332123028 376.8121982854209 L807.1707194175815 376.0375140752476 L806.5038902581837 377.6143986014231 L804.422091418106 377.5964073014602 L804.3339407827916 395.0559056038619 L813.8078543214742 395.61628168212155 L813.9822557939278 390.99357590337604 L822.7855405768678 390.2342372137555 L823.2027362560784 399.9283729585695 L826.9529378533643 399.98922588491587 L826.9552176111738 404.40873580525476 L830.6412060301536 404.21718137623793 L830.6495651421228 406.8925935119205 L832.4505738119442 406.90370578542934 L832.4509537715785 408.44090362050883 L836.1905164990912 408.6906651964673 L836.1016059445028 400.28925726959096 L834.916131883354 400.3046027901473 L836.1468211410629 398.6462282582579 L833.2222718305966 378.91665122521954 L832.0512362355767 377.649322889587 L824.6503824653682 379.1341342924188 L824.5048579251688 377.3006091638308 L822.9287853592559 377.38527410483584 L822.9287853592559 377.38527410483584 Z M824.394289671387 399.95271412910733 L823.2027362560784 399.9283729585695 L822.7855405768678 390.2342372137555 L813.9822557939278 390.99357590337604 L813.8994245935046 395.56918680868876 L800.1680633448304 395.40673595314 L800.2246773304469 399.9257271791612 L790.4646541866186 401.92858218975744 L790.2104611908162 406.34438801892975 L798.6307466616854 411.23008427066816 L811.2389472293507 410.78030177159053 L823.1613206558632 404.1663824116313 L826.9552176111738 404.40873580525476 L826.9529378533643 399.98922588491587 L824.394289671387 399.95271412910733 L824.394289671387 399.95271412910733 Z M776.8970555406249 381.2496995057263 L770.3704888905104 378.8314571283354 L769.1667767668805 379.7617131676034 L769.187294587171 399.0764319897298 L782.4281279470797 399.4071544155213 L783.0022469555443 401.7941765959167 L790.2104611908162 406.34438801892975 L790.4646541866186 401.92858218975744 L800.2246773304469 399.9257271791612 L800.1680633448304 395.40673595314 L804.3441996929378 395.03315190096873 L804.422091418106 377.5964073014602 L785.3952327366696 377.3260086461305 L783.8913525013995 377.6847763336318 L783.2203437860244 381.36823042313154 L776.8970555406249 381.2496995057263 L776.8970555406249 381.2496995057263 Z M929.4113331845128 365.21310136805005 L929.5078429317982 363.4520705951945 L925.8188148357422 362.93984770212955 L917.4768010496737 366.1682277337386 L911.9419290468668 362.4175708473176 L910.7184590222205 365.66341302301043 L898.4833788161122 375.570269432088 L874.9034638286612 370.22103262836026 L873.0811774192807 366.0920292868377 L873.4953334214151 355.3295278177484 L863.0475833382716 353.9754179175834 L861.2313762830508 351.91541407181285 L864.0525765728053 340.760278938822 L863.5293721554299 335.18562172967904 L860.7609862549416 330.04010994023884 L869.2154680929616 322.1789701681373 L869.2204075682148 310.9952606175593 L873.2730570349504 309.0971784714566 L871.7414397463308 304.14639604632066 L866.7126739773248 305.63226576091984 L865.1415408866651 303.79556569704437 L856.6764201788665 302.33086221769554 L853.1230376724961 295.16397496181526 L847.8404588673202 293.90934636733436 L833.8123491437254 301.03548862035495 L833.3586773395564 305.29995586748555 L829.4872686187045 310.20734751035343 L828.71899023677 338.01978062974194 L830.8779208827491 348.6399391667692 L837.367251488633 356.3280449656959 L835.2516362410461 358.2547015293894 L836.0138352688209 362.05033666571944 L839.6580281279494 358.6822594814548 L842.2797496093353 360.79835385064143 L839.8958828594477 367.0429224054715 L837.274921297334 366.76723219133237 L836.6757249529655 368.5753578376207 L830.7206175938645 371.9026900190256 L828.5035531237336 370.5983207717054 L827.4822216248995 376.95136628219734 L824.5048579251688 377.3006091638308 L824.6503824653682 379.1341342924188 L832.5326450930988 377.77684945697183 L834.9039731750327 386.3370041482267 L836.1692387595303 399.8542911351906 L842.9127623612185 400.41572552521393 L842.9952136020129 429.51400743608247 L850.0837405522634 446.53695213643914 L851.7589825829073 446.5485935658271 L853.224486895042 444.33301789096186 L857.460656865469 433.73137980977845 L868.1971762712055 439.9844148587108 L881.8042907192357 441.51843775850284 L888.7613516357869 447.7518940398277 L892.2322829013629 448.66098384384713 L886.9763012706371 439.54098223021174 L888.644704027849 435.1299388039679 L893.3938195055052 433.40489063103814 L893.93222230828 431.43378497332196 L888.3460557547496 429.80133907960953 L887.2772293015405 426.81637075338404 L888.2803227378954 424.98390393655427 L894.4877232946255 423.27684706358923 L895.6222827646852 421.45337589674455 L883.5057499646955 411.7359572931564 L882.3875287589399 398.656811375884 L889.223382551927 388.6293074258738 L897.1683385194337 381.68625310777134 L902.1556886882281 379.9675548054165 L904.227608577794 383.9769689177738 L908.4561793555258 377.1265168788923 L915.9752005722185 373.2245214104314 L919.223095532061 369.0325485190351 L929.4113331845128 365.21310136805005 L929.4113331845128 365.21310136805005 Z M809.827397185385 308.78603481327264 L799.19764643708 318.20024709689096 L790.279613844381 318.59817231960005 L787.9329831387222 322.29908855318536 L783.2002059253664 325.4211082526581 L776.1219378852602 325.3316809087228 L772.8466858316988 326.4000466330035 L771.2026004911222 328.7722524487217 L767.6222408506728 328.7913020604483 L766.6670223283272 332.20859074166947 L760.7932263311122 338.0748128413943 L753.5344774643854 337.5424820248427 L751.4048037103039 339.0283517394346 L749.9826147965596 349.91520484062494 L746.9980318637663 352.37736715615756 L746.3034656510154 356.4322886743066 L748.3305503036536 370.2030413283974 L748.4380788803501 375.9914775135767 L747.4045886731965 377.1984820787475 L750.8029476484917 377.5387293104013 L751.2490202599583 387.606449107383 L755.4183173346355 388.6695232728507 L754.904991867772 401.5126656670818 L758.2076010150504 399.03357036334455 L769.187294587171 399.0764319897298 L768.9950350118706 380.26388209892684 L770.3704888905104 378.8314571283354 L775.8274691681454 381.16820950001056 L783.2203437860244 381.36823042313154 L783.8913525013995 377.6847763336318 L785.3952327366696 377.3260086461305 L806.5038902581837 377.6143986014231 L807.1707194175815 376.0375140752476 L813.6300332123028 376.8121982854209 L813.6349726875542 375.7073208053371 L827.1117609807916 377.0476726525849 L828.5035531237336 370.5983207717054 L830.7206175938645 371.9026900190256 L836.6757249529655 368.5753578376207 L837.274921297334 366.76723219133237 L839.8958828594477 367.0429224054715 L842.2797496093353 360.79835385064143 L839.6580281279494 358.6822594814548 L836.0138352688209 362.05033666571944 L835.0229005407837 360.6745313744268 L836.2543497177667 359.32571303307486 L835.2516362410461 358.2547015293894 L837.367251488633 356.3280449656959 L831.3217137364081 349.99669484633887 L828.71899023677 338.01978062974194 L829.4872686187045 310.20734751035343 L833.3586773395564 305.29995586748555 L833.8123491437254 301.03548862035495 L822.2847537779598 300.0078678989321 L811.6819801637394 305.56823789928603 L809.827397185385 308.78603481327264 L809.827397185385 308.78603481327264 Z M769.187294587171 399.0764319897298 L758.2076010150504 399.03357036334455 L756.440788712378 401.42852988195955 L754.4099044633858 401.5343610582131 L754.3114949179271 407.73289305137223 L755.564981753736 407.68315239853473 L755.6964477874444 411.12742802970206 L756.7280381964229 411.0364132181239 L756.9058593055961 416.53381366860594 L761.6762525228169 415.72685094967346 L760.0701631457396 424.4690352640846 L761.0052438074345 427.2354622113453 L765.9158421299617 426.5221600833993 L766.1312792429981 437.52807325787035 L774.778780575587 437.63602105764767 L774.792459122451 441.99520720752844 L814.7543337722145 441.69835075813535 L825.1773864790885 440.5199206105535 L830.7061791277338 437.7016363869261 L836.9075003303024 439.51346612438283 L844.9789828562589 434.70132254014425 L842.1953985703731 423.26044323126916 L843.6483642145467 407.24342386120225 L842.6399513432989 399.7341727501407 L834.9199314797042 399.87122412338977 L836.1016059445028 400.28925726959096 L836.1905164990912 408.6906651964673 L832.4509537715785 408.44090362050883 L832.4505738119442 406.90370578542934 L830.6495651421228 406.8925935119205 L830.6412060301536 404.21718137623793 L823.1613206558632 404.1663824116313 L811.3084798425498 410.7660145627942 L798.6926800821875 411.2359049853603 L783.0254244932712 401.8142845194034 L782.4281279470797 399.4071544155213 L769.187294587171 399.0764319897298 L769.187294587171 399.0764319897298 Z M890.385299115711 166.28223936456016 L889.1185136926706 178.6644869862066 L883.8830498822317 186.12293913266512 L883.7865401349463 189.85877965440886 L886.5260491031804 189.43175085822804 L894.126001722123 196.9346520987092 L894.6541456147515 201.0398434255785 L898.8071044251174 204.54391367132848 L899.8485737846077 211.37849103377084 L905.317712770564 218.48399620742566 L916.9535966322983 220.89218462307144 L940.4780375130413 218.70200843050588 L944.235078383761 216.99124746637062 L945.1032861496988 215.0307249262769 L954.4214162380376 212.6960891781273 L952.7191970733111 193.73749226409745 L959.9448894517955 192.16378267320943 L959.5276937725848 188.168655769643 L986.4493537497128 184.0465314545727 L985.2722388005295 171.64999662413356 L988.7443099450138 171.16158574572364 L989.3343872581445 169.70270298107062 L984.5902112557342 160.50068220583853 L985.3581096780417 156.6463107666932 L988.1386542868513 154.18361929527236 L984.4443067559023 149.92656023048585 L982.9328273279352 142.57393926027726 L980.779596076487 139.36196306098827 L977.3071449723702 140.5901338614094 L969.8549966514347 139.35085078748125 L967.0440552718283 142.45276256346915 L963.9948792010819 141.5468476947408 L962.9986250381589 139.55616326941163 L960.8252559260491 153.38671053808866 L957.2095600395478 157.1865789214662 L956.0035681581085 161.20922193085607 L948.2223747932767 164.9376542702612 L940.8249406597806 165.6795308157998 L938.5109864827318 168.61052524213665 L933.1793928846382 168.69942343018738 L931.5353075440707 164.08624245730607 L929.8042114470827 163.4078646175185 L925.1272883000674 165.9462253799593 L920.6878399249235 163.02052251243185 L916.2506713075836 168.97934689137765 L913.4883647612514 166.55687126694102 L902.6982710469874 162.73107424538102 L894.4721449495883 162.3273283079743 L890.385299115711 166.28223936456016 L890.385299115711 166.28223936456016 Z M972.7757463655544 356.45451322132067 L973.5991188945645 354.7347566072003 L978.2543843423864 357.47842985157513 L985.1529314751479 370.46232771021823 L996.2200157633142 363.19278421337367 L996.3700998191362 355.1411483240154 L998.459117892271 347.7260869598231 L997.3800325289212 343.53834731547613 L999.4990674132259 338.84050140158797 L1000.9258158425873 329.2458469624562 L999.3596222271826 328.6791210136216 L1000.6252677713146 325.91110659871083 L999.8098743946393 324.40089571357566 L994.0113104051561 322.3059675796394 L994.4045686273657 317.47742016308075 L992.6806917634385 313.3838702655994 L985.7525077791524 309.01727593338364 L985.8889132881122 303.01717739569904 L984.1540175947775 301.179948175939 L985.7479482635335 298.31933148180906 L982.2382611151879 293.6209564120418 L981.5740916732357 288.8707240659078 L979.5534663343915 286.89908925231066 L974.5322997580879 286.3164886270333 L972.5515701809145 281.9583607889199 L972.6632783136029 277.90026433548155 L976.1710656637697 268.7628005777642 L980.7902349462674 267.43038606873415 L974.7933320273205 260.9889715260724 L974.0109951388895 250.90484789676702 L983.5320236723073 248.60778221618784 L992.1704059736603 239.15599986500092 L995.2974737695749 239.04276050640874 L989.0440980970143 208.2554130225344 L989.2329380355986 201.13720810773157 L986.4493537497128 184.0465314545727 L959.5276937725848 188.168655769643 L959.9448894517955 192.16378267320943 L952.7191970733111 193.73749226409745 L954.4214162380376 212.6960891781273 L945.1032861496988 215.0307249262769 L944.235078383761 216.99124746637062 L940.4780375130413 218.70200843050588 L922.4668109359118 221.01812372280983 L905.317712770564 218.48399620742566 L899.8485737846077 211.37849103377084 L897.7926121997134 202.52412567253486 L894.6541456147515 201.0398434255785 L894.126001722123 196.9346520987092 L886.5260491031804 189.43175085822804 L883.7865401349463 189.85877965440886 L882.8696975357307 192.70563829562707 L877.8732283356985 193.78723291693677 L876.0604409171865 202.25002292603858 L877.0285780671275 221.28905153401865 L874.8924449992483 229.39201554386455 L877.7189647238938 231.78009603601822 L878.330699736216 237.8775592558577 L885.6832986327845 246.8282309874885 L886.4758944313635 255.8191185660944 L885.314357827212 263.70830359990396 L888.373032888836 268.1315176114131 L891.1106420588931 284.63006883343587 L890.3659211743216 289.25224545630226 L891.6786817131906 299.98405588427704 L887.5378816111388 304.3517085282547 L882.260622240854 302.6060232759537 L877.0243985111447 309.221000947673 L869.2204075682148 310.9952606175593 L869.2154680929616 322.1789701681373 L860.7609862549416 330.04010994023884 L863.5293721554299 335.18562172967904 L864.0525765728053 340.760278938822 L861.658830872404 353.25206182789407 L872.9747887214908 354.6897783572949 L873.9550845797457 356.9614445555726 L873.2966145323189 367.5593785455876 L876.00534677012 370.6565279186452 L898.4833788161122 375.570269432088 L910.7184590222205 365.66341302301043 L911.9419290468668 362.4175708473176 L917.4768010496737 366.1682277337386 L925.8188148357422 362.93984770212955 L929.5078429317982 363.4520705951945 L929.554577966901 366.9402661645054 L931.815337795053 371.72912688997167 L936.1077417914639 374.59979754584674 L937.0340833815535 379.4368114565077 L943.8972942682612 379.64794465312843 L950.1385112324988 382.4979782296341 L951.6868467450604 380.56391348360194 L955.8021895515703 381.4354332200528 L961.0767892044096 386.32324609531315 L964.195497888355 382.7974804584301 L962.1771523073203 377.9916867447646 L962.6798389044034 375.0643964095998 L969.8572764092496 365.0358341478259 L972.7757463655544 356.45451322132067 L972.7757463655544 356.45451322132067 Z M885.7383927798583 444.57960453163287 L881.8042907192357 441.51843775850284 L868.1971762712055 439.9844148587108 L857.460656865469 433.73137980977845 L851.7589825829073 446.5485935658271 L850.0837405522634 446.53695213643914 L844.9789828562589 434.70132254014425 L836.9075003303024 439.51346612438283 L830.7061791277338 437.7016363869261 L825.1773864790885 440.5199206105535 L814.7543337722145 441.69835075813535 L774.792459122451 441.99520720752844 L774.778780575587 437.63602105764767 L766.1312792429981 437.52807325787035 L765.9158421299617 426.5221600833993 L761.0052438074345 427.2354622113453 L760.0701631457396 424.4690352640846 L761.6762525228169 415.72685094967346 L756.9058593055961 416.53381366860594 L756.7280381964229 411.0364132181239 L755.6964477874444 411.12742802970206 L755.564981753736 407.68315239853473 L754.3114949179271 407.73289305137223 L755.4183173346355 388.6695232728507 L751.2490202599583 387.606449107383 L750.8029476484917 377.5387293104013 L729.6445154147896 375.9687238106835 L728.6152047636206 377.0778345378221 L731.3516740547766 381.4634784817572 L728.6881570135374 386.6047570241499 L725.0044483523725 382.79060143197603 L722.9211296737576 383.29594529858696 L721.2797040506266 386.15074127801927 L710.2559351608452 388.1784666150379 L709.1529123404907 391.17295974712397 L711.5462780812522 397.3868372608413 L707.5418834881566 398.41604544990696 L706.8955721490511 407.23971977003384 L702.7893483737826 404.2351726762008 L698.8465072415602 403.55150327760384 L694.267613680373 394.7601074662325 L689.2719043996094 395.05855138327024 L694.4047791086014 406.68569356234366 L699.4396242317689 409.26691595116426 L704.311086711894 407.78104623657055 L705.7154175227897 409.23252081888313 L702.7977074857536 415.4749727501894 L698.2594696055075 417.96835526272116 L697.940303512125 420.27177081387526 L700.3374688492349 423.7853658654876 L705.1507975052064 439.133532201633 L708.7938504854319 444.19914145300027 L715.9526699681555 446.17183457836654 L714.3310022460464 449.6938961240776 L716.6122798944907 454.31078118813093 L716.9059886923314 463.90437731550264 L721.443466653307 464.68382392860804 L724.3167214130499 471.5400966821835 L731.7418925998991 471.7263595523891 L734.8397035039197 479.7584166741399 L730.2908267538951 480.3182635965186 L728.7557898285668 481.9713465695986 L726.7241456603078 503.2381214377165 L732.7081299516649 513.6614339869102 L734.1755340619711 526.7675668541306 L733.4319530563062 529.7747597273701 L735.3800061048678 531.4363091945488 L733.661068716201 535.6325153329963 L737.6988997571716 541.0770001953515 L737.4352077704953 546.4442282990422 L734.2868622350215 548.2999779746442 L737.3679549151057 555.8055249945355 L736.1843806521283 556.6251874546197 L737.0522084584336 561.0494597778888 L738.4409609242957 561.012418866203 L736.6353927388536 563.493630793464 L737.9747504521692 564.1614255156219 L737.5583146922309 568.2137012543626 L735.2379012013862 571.4018654389947 L735.8549556485959 573.7952374899669 L733.9988528317026 575.369476236734 L734.3058602167712 578.3581486541298 L727.0790279593821 583.0819232062004 L727.5957730629561 588.6957379505639 L722.8462776256656 599.9339505569078 L716.6175993293782 606.1705817735201 L708.9716715946015 622.6548457867466 L711.9592942044783 623.9581567223122 L717.123325603543 622.3939719372847 L725.5390515587951 616.5796071139248 L727.8944213360573 618.336404639731 L731.8026861414965 617.8956177906366 L732.7548649867695 622.6527291632246 L730.8740647935956 629.3296180730504 L736.5309038392334 636.2515061559025 L738.7304901661555 635.0138105496189 L740.8122890062277 635.9731701623587 L743.5502781359191 633.9745483988117 L746.4786270427412 634.89316300869 L750.6874399194548 631.3779804894348 L750.7223962058724 629.4968313315312 L753.3536166781323 631.7880762974164 L759.3505195970774 627.3754454035297 L764.8511952327353 630.3572387944714 L765.6688683672237 627.4574645651264 L768.7841574144513 624.4492133801232 L772.9842312195615 627.0796472659058 L776.2325061390366 626.1488620707569 L780.5982423450023 621.4473120656985 L788.6609857993535 616.6330518579325 L791.5942741814251 612.9099110773386 L793.5142102169993 602.366480143095 L803.3365467409621 603.1305812356441 L810.8559479172873 597.8887630758127 L815.9971817382502 599.1174630321166 L820.5282003854263 597.8003940436429 L823.1218048538267 594.4741201739962 L828.6760547980175 593.8560661046777 L837.9873456129262 583.3613175115115 L841.0513401094358 574.7921671702752 L843.1403581825725 573.2978309615737 L850.3120962928897 576.842646210187 L855.2789286413936 575.5329854040465 L857.4287402561313 579.9561994155574 L860.5098329362154 581.9521753996996 L865.4474083928271 581.5447253711209 L869.097300646481 585.8123675535389 L870.3982824366649 597.3987647297599 L873.9319070420115 597.396648106238 L877.308988277744 600.1524919358744 L880.0260796275161 598.4692470775626 L883.949922777987 598.3089128455376 L886.162427732499 601.0176618017449 L890.2139373203263 599.0544934822447 L895.2666405463424 599.1291044615027 L900.0529920682311 602.6564575660304 L907.913217037134 602.6691573071785 L912.5103486608059 597.15535302438 L910.2887246750543 591.9553381791684 L909.9817172899911 586.0965242617822 L903.3654801660177 581.3674581508967 L903.8347303152204 568.9476404616817 L905.6592964824122 565.6277164626117 L906.3173865702047 554.3032514476163 L903.1390242235684 549.0709580936509 L899.6608737249298 546.4749193401567 L895.0759008095811 535.6145240330352 L892.7228107901283 534.0900259391019 L889.9890012164178 526.006640696869 L889.9745627502889 517.8354155783454 L887.5093846385189 509.5440720747756 L873.7396474667075 483.7720640335501 L877.2402155838154 480.2129615761478 L879.8911939570971 480.07432273525774 L884.6209314933694 485.4516048006899 L887.8901041927711 486.3516989547279 L895.0299256937451 480.73206349567045 L901.6043672578671 480.4881226344096 L904.7774101696159 476.8533508859855 L904.8005877073501 473.61068364558014 L902.108573693491 468.9239500052008 L894.7464758060505 464.8028840018924 L891.9020979785619 462.2835728511818 L891.8086279083564 460.4071860962067 L887.635911196965 458.4043310856141 L892.2322829013629 448.66098384384713 L888.7613516357869 447.7518940398277 L885.7383927798583 444.57960453163287 L885.7383927798583 444.57960453163287 Z M972.7757463655544 356.45451322132067 L969.8572764092496 365.0358341478259 L962.6798389044034 375.0643964095998 L962.1771523073203 377.9916867447646 L964.195497888355 382.7974804584301 L961.526281452594 386.1846072544231 L955.8021895515703 381.4354332200528 L951.6868467450604 380.56391348360194 L950.1385112324988 382.4979782296341 L943.8972942682612 379.64794465312843 L937.5291707859324 379.791875052837 L936.1077417914639 374.59979754584674 L931.815337795053 371.72912688997167 L929.4113331845128 365.21310136805005 L919.223095532061 369.0325485190351 L915.9752005722185 373.2245214104314 L908.4561793555258 377.1265168788923 L904.3845319070424 383.887012417963 L901.2897606800998 380.0194120817814 L897.1683385194337 381.68625310777134 L889.223382551927 388.6293074258738 L882.3875287589399 398.656811375884 L883.0410593311062 410.7072782599753 L895.6222827646852 421.45337589674455 L894.4877232946255 423.27684706358923 L888.2803227378954 424.98390393655427 L887.2772293015405 426.81637075338404 L888.3460557547496 429.80133907960953 L893.9808571415597 431.6750800551781 L893.2121987999835 433.52712563960995 L888.644704027849 435.1299388039679 L886.9763012706371 439.54098223021174 L892.3002956760247 448.11595328614203 L887.5580194717968 458.2201848389341 L891.8086279083564 460.4071860962067 L891.9020979785619 462.2835728511818 L894.7464758060505 464.8028840018924 L901.6150061276476 468.40220230627165 L904.9662501082021 475.978656214249 L901.6043672578671 480.4881226344096 L895.0299256937451 480.73206349567045 L887.8901041927711 486.3516989547279 L884.6209314933694 485.4516048006899 L879.8911939570971 480.07432273525774 L877.2402155838154 480.2129615761478 L873.7396474667075 483.7720640335501 L887.5093846385189 509.5440720747756 L889.9745627502889 517.8354155783454 L889.9890012164178 526.006640696869 L892.7228107901283 534.0900259391019 L895.0759008095811 535.6145240330352 L899.6608737249298 546.4749193401567 L903.1390242235684 549.0709580936509 L906.3173865702047 554.3032514476163 L905.6592964824122 565.6277164626117 L903.8347303152204 568.9476404616817 L903.3654801660177 581.3674581508967 L909.9817172899911 586.0965242617822 L910.2887246750543 591.9553381791684 L912.17218458567 596.811401701556 L917.6903383645349 598.01205639615 L920.2702642860731 596.0123763208394 L926.1262021804378 598.7634577475455 L930.7582900905236 598.9460165265846 L934.5343289429948 601.3441509804834 L938.4346145961026 608.532733627495 L944.9159660496498 609.4360027168204 L950.2935347635757 604.8334048615579 L953.3605689371634 605.5128410131074 L959.7970851537866 602.796683874567 L968.3826530658735 610.7520133935323 L974.1219433523056 610.553050782175 L976.1912035244222 614.5682856092262 L992.0529984464501 615.1318366227788 L995.156128785362 617.8919136994646 L997.5095987644472 614.5301863857767 L999.9895953019877 615.0387051876733 L1001.0838790507405 612.5320937781125 L1003.873922650424 610.9716130842553 L1017.7914641202406 613.2760869471749 L1019.8185487728806 608.8586936503561 L1028.133585424861 606.2626548968619 L1029.7556331066044 598.4777135716613 L1033.7626874171438 596.6473633783589 L1038.5338405536313 589.5931863251935 L1043.4015034374079 586.7002911223062 L1050.2137997330265 586.8786166542923 L1052.110938190499 578.7454907592182 L1051.3931944400192 571.4145651801482 L1052.9719267233759 566.5966008812102 L1052.4331439609668 563.0163321885611 L1045.1424784849023 556.5955547252688 L1038.4122534704366 553.2946803379236 L1027.171907588714 542.6972755037932 L1029.610108566405 537.8554991901983 L1028.2726506512663 534.8049155346944 L1030.4631179469452 532.2459176928878 L1031.8507305339062 518.9429388378394 L1037.7066684282727 514.6287309378695 L1034.831133910715 510.2303872527755 L1034.8102361307938 506.80992363626865 L1039.0144894918885 502.92962355893724 L1039.9526098306596 498.2375983597449 L1043.3809856171156 497.7777618989203 L1046.9043513123215 494.27739574434236 L1065.571008259798 492.8074007061841 L1066.5368656519258 487.38566954672024 L1072.5204699836431 484.43456719689675 L1074.8568417791612 476.7808565302512 L1080.0467104334039 479.6451773155477 L1087.8993362096062 475.32514870088744 L1089.9613771486656 472.18990010437847 L1092.6792284177009 477.58623178154085 L1096.6266290655458 476.70889133039964 L1101.3886631707974 481.693010576053 L1104.9580039818338 481.6945980436958 L1106.7232964459654 467.86934233383545 L1113.0450648528222 463.86733640381317 L1121.6541902622848 447.45186265515076 L1126.6939748607037 447.93709859827504 L1124.310488070456 451.78776594625015 L1124.7744187847711 455.9887344876279 L1130.1322295976734 451.31417143251747 L1134.5226631799087 454.23246611770446 L1137 450.6400268397847 L1132.6760593538856 444.39704575259384 L1128.1799969931271 447.3836015464676 L1120.143090793954 435.5828962383348 L1116.0494056866391 434.3695418025891 L1112.4325699212313 435.53421389725554 L1107.7993421322371 433.6271361011695 L1113.2734205934503 425.3479631828686 L1113.596386283185 421.13852814738857 L1106.1643758229075 418.55677660269066 L1102.3552804821957 407.7794587689259 L1098.749843505835 408.0260454095933 L1086.8525474152284 403.9510159679594 L1078.5390306017907 406.2761269102448 L1073.3313038447031 401.9449860220775 L1069.8067982705961 402.9461489494315 L1065.518953789806 406.74231324164066 L1043.2939748607077 393.3213326250698 L1037.4399367645128 392.607501341241 L1033.9895233192292 396.03643145184833 L1027.6297589488713 395.36704926204766 L1023.8248431641459 397.0397110027334 L1020.4603005963654 393.2361385281856 L1014.5355900080685 390.6326915923528 L1005.3705836526242 380.4739569837893 L1004.5107349986574 376.5957735299853 L998.3998441892181 374.8802501629161 L998.5715859442298 368.6372690757307 L996.2200157633142 363.19278421337367 L985.1529314751479 370.46232771021823 L978.2543843423864 357.47842985157513 L973.5991188945645 354.7347566072003 L972.7757463655544 356.45451322132067 L972.7757463655544 356.45451322132067 Z M587.0205870695263 422.789494496943 L581.579565096561 426.8650530944615 L573.8048310455288 429.1330152015744 L569.8152548781982 428.6916991965918 L563.3019868153133 424.0425356237811 L556.3665835979573 421.77616098431463 L550.8252522813564 422.7259957911883 L543.54028619981 427.6402664605139 L537.8082151464496 427.21270850845394 L517.002765413652 413.70917957439997 L503.84362337526545 413.7128836655702 L498.9189665462418 416.855011288535 L495.0281798840115 417.16827157024454 L486.23857364793366 410.86655418023656 L478.373029244136 407.611187198685 L455.1514161924788 411.3734855144903 L456.25253921466174 418.37051373248323 L453.3249502271119 432.07300527789084 L453.8633530298848 436.8629243151172 L444.2849505915801 454.0043999328809 L445.4449673571853 460.60720701932587 L443.567966760369 472.2290576395935 L444.0702733978178 478.3132919624004 L438.92486002086844 487.8058193164452 L433.8425199433259 492.7274981681112 L433.2854991184413 501.64430392334 L428.9467400465619 504.60969348195977 L427.3927051394785 508.69266026181685 L422.97225474607694 510.4584534376045 L421.87683111842125 518.5413095239564 L423.0433071978241 522.9613486001781 L422.4517100461526 528.7704218647268 L425.57725800353 540.5679522375722 L422.4889460903796 541.8442762231898 L414.142752748332 540.9764605779092 L412.54654232176654 540.0821871385706 L408.91298833241854 532.1787148959666 L405.26347603839713 531.4225511416353 L395.38186581138143 537.8634365284161 L390.73077991954597 544.4678310825111 L386.2962710196498 545.8616276737685 L380.20361827268607 540.9854562278906 L378.96912941862684 538.0777446603315 L372.10705841082563 535.3949243423049 L368.2934035544895 540.3536441056604 L364.38703854722553 541.2299262450397 L362.28244212905156 543.4095193199755 L354.8861478744584 558.9651147615805 L339.3412392880109 570.1636406768339 L329.4706478904027 568.6661295328486 L328.9596021813504 581.9521753996996 L324.9582472653383 607.0563887187618 L330.55809236572895 607.3622408181345 L332.7949147368781 609.0264360647197 L333.8960377590611 613.8999617311893 L332.45295106539197 616.5087002258315 L332.48752739217525 620.841428581647 L326.3310414265343 625.1318244669601 L321.9033718000719 632.4622208901492 L320.46674442019685 638.9681924503275 L322.54398374465745 647.1029058130443 L321.90945115423347 649.5079192934008 L316.86054752456766 655.0709350731613 L316.9057627211314 658.6464413628837 L307.52189961594013 665.9879500595816 L303 680.8201894114918 L307.1313011111797 681.6118066098679 L309.3335471555456 686.500148641011 L317.166794990364 690.4513556064321 L323.7256582094524 688.3125075343505 L325.7398242345025 681.2599179488243 L327.81212408370084 679.3247948910303 L337.96692528827225 677.8928990763234 L343.85933930759893 681.6303270657099 L351.27007202832465 682.881780724907 L355.59857219005244 680.5746610825827 L362.94357189392395 682.8368024749998 L369.5020551533762 686.9118319166373 L373.41715923224547 685.0904773733164 L381.1576969161342 693.647457129282 L385.8361399016849 692.8748895426324 L388.8218627133865 694.6491492125224 L392.2164220923278 692.0949137736443 L395.41948181524276 683.1405379508487 L398.9557661380368 681.3334706163187 L402.6862098343063 674.5428131920198 L403.6798042797891 669.1110280708181 L407.1473159086472 664.9926078469143 L414.1590910126379 674.253364924969 L419.58985407545515 674.8862353589648 L420.8087645844844 671.7763862447591 L426.76653166102915 667.5066274388137 L431.7193055030366 673.1241462743474 L437.8689521952492 673.2273316711926 L445.82074743618614 676.8292957549784 L447.66697130256944 675.9090936774537 L465.2203465195453 686.3906133735873 L467.7721554280906 685.3185435581418 L472.7530462830928 678.9390402535864 L475.86187601653 677.8294003705687 L482.21176143637604 679.0205302593022 L488.23374169123235 684.4295616776126 L495.04147847123386 679.3851186614975 L501.2853551529206 684.8973354766513 L504.59784325070905 683.5464005117774 L506.7385358342017 685.0449699675264 L510.27671995517267 684.0014745696699 L513.0842416980686 685.3137811552115 L516.1664742570556 683.4178156326325 L517.6593356629037 677.4865073595101 L523.6072237889366 679.492537305392 L527.6876103090271 675.637107554483 L535.1758547952813 675.8678195187149 L542.5964664665134 664.7703623767848 L542.6428215419819 661.9870024413194 L549.5755650418887 658.7559766303038 L552.0057868672484 655.83027376278 L562.084976104461 658.205125357903 L567.53853674538 653.6681428319225 L570.2313106785095 648.4099208397729 L575.3706447012955 645.9472293683575 L576.0393736588703 641.5139613950996 L585.7203651986129 641.6197925713532 L590.2711417468126 629.2719400819933 L590.2984988405315 623.0871661417441 L598.2191373914047 610.82186196986 L601.9055057700098 607.5945402500074 L602.1676779181525 604.4725205505365 L606.4384242153683 596.7801815045605 L605.9923516038962 590.2948470237534 L612.9965275151826 580.2625806708111 L612.787169756306 571.145224836584 L611.4383130521182 566.8416000542402 L608.6102734889337 566.0330498676631 L607.4160603561795 562.4400814338605 L607.6105996892911 545.2795562043739 L609.9500111618872 537.7380265845586 L616.2075663904307 526.6850185366548 L614.5197856918348 521.5760185030231 L616.5214130489258 513.2746210377081 L620.8043180544628 508.62863240018305 L620.8917087705104 501.05852836278063 L618.047710902656 493.761468760109 L621.1455218066785 469.3589161396012 L627.7807569123961 452.0274735604653 L630.1570244695831 440.5749528222059 L628.8784602978612 436.47029065121933 L629.9841428356649 432.583640703313 L633.6545529096111 430.5897813426982 L640.4223939279364 431.7475744109088 L640.8407294860554 427.1396849968387 L640.488506904423 424.38807441424797 L637.084828494244 419.50555309780066 L638.4154471359543 414.98603271589855 L623.1859050465428 423.3250002487821 L617.7103067467888 421.71213312268264 L607.3693253210749 427.21535428786046 L603.4663799505233 424.0367149090871 L587.0205870695263 422.789494496943 L587.0205870695263 422.789494496943 Z M676.6922008045713 400.25644960495265 L668.2179610655276 406.89100604427585 L663.1477796963063 406.41582406289854 L659.1578235693469 411.88782503108087 L650.6151910960052 414.69023457826916 L638.4154471359543 414.98603271589855 L637.084828494244 419.50555309780066 L640.488506904423 424.38807441424797 L640.7126830890629 431.44965964975563 L633.6545529096111 430.5897813426982 L629.9841428356649 432.583640703313 L629.1843278040233 434.5700918815892 L630.1570244695831 440.5749528222059 L627.7807569123961 452.0274735604653 L621.1455218066785 469.3589161396012 L618.2886053112379 489.2509440281883 L618.047710902656 493.761468760109 L620.8917087705104 501.05852836278063 L620.8043180544628 508.62863240018305 L616.5214130489258 513.2746210377081 L614.5197856918348 521.5760185030231 L616.2075663904307 526.6850185366548 L609.9500111618872 537.7380265845586 L607.6105996892911 545.2795562043739 L607.4160603561795 562.4400814338605 L608.6102734889337 566.0330498676631 L611.4383130521182 566.8416000542402 L612.787169756306 571.145224836584 L612.9965275151826 580.2625806708111 L605.9923516038962 590.2948470237534 L606.4384242153683 596.7801815045605 L602.1676779181525 604.4725205505365 L601.9055057700098 607.5945402500074 L598.2191373914047 610.82186196986 L590.2984988405315 623.0871661417441 L590.2711417468126 629.2719400819933 L585.7203651986129 641.6197925713532 L587.7417504567238 647.7384220264466 L593.4270864749888 650.1556060920739 L598.3787204380933 657.6182914855799 L601.146346419313 657.0166412485796 L602.0331722073661 653.4522472323642 L612.7761509268912 648.0633237375423 L615.3613962833206 643.492475235158 L621.7743550025771 638.0818563492066 L624.7513387426734 638.4813690395622 L629.4529592659583 635.5646618220162 L635.5478917707314 639.810079457422 L651.204128530233 644.5142752418869 L652.0624573456607 648.5760757864937 L654.8323630846899 650.7091031438777 L657.547554636285 657.0616194984887 L666.5518380661251 657.1648048953357 L668.7863806794649 654.1380332544868 L667.5169355389826 649.001517115028 L673.4788821715119 642.8908249981614 L675.7069654710558 633.8163307903105 L678.8769687057247 631.5589518008292 L678.759941138147 625.0386930318564 L689.2377080324604 620.4249829030905 L691.9973548613434 616.6161188697297 L694.0327986259526 618.9369965649694 L701.0757304200088 620.1619924300976 L706.0459824052305 619.0264239089029 L708.8234873369602 620.3556634826455 L708.7908108083484 621.9918134675208 L710.2965908417882 621.2488786102203 L716.6175993293782 606.1705817735201 L722.8462776256656 599.9339505569078 L727.5957730629561 588.6957379505639 L727.0790279593821 583.0819232062004 L734.3058602167712 578.3581486541298 L733.9988528317026 575.369476236734 L735.8549556485959 573.7952374899669 L735.2379012013862 571.4018654389947 L737.2995621808077 569.6429512896666 L737.9747504521692 564.1614255156219 L736.6353927388536 563.493630793464 L738.4409609242957 561.012418866203 L737.0522084584336 561.0494597778888 L736.1843806521283 556.6251874546197 L737.3679549151057 555.8055249945355 L734.2868622350215 548.2999779746442 L737.4352077704953 546.4442282990422 L737.6988997571716 541.0770001953515 L733.661068716201 535.6325153329963 L735.3800061048678 531.4363091945488 L733.4319530563062 529.7747597273701 L734.1755340619711 526.7675668541306 L732.7081299516649 513.6614339869102 L726.7241456603078 503.2381214377165 L728.7557898285668 481.9713465695986 L730.2908267538951 480.3182635965186 L734.8670605976386 480.263760540749 L734.5414351904601 478.9234086935012 L731.7418925998991 471.7263595523891 L724.3167214130499 471.5400966821835 L721.443466653307 464.68382392860804 L717.2973471163641 464.50973164367133 L716.3045125901517 452.73865906488936 L714.3310022460464 449.6938961240776 L715.9526699681555 446.17183457836654 L708.7938504854319 444.19914145300027 L704.8912850745146 438.6266008673829 L697.8396142088532 419.0637079369426 L702.7977074857536 415.4749727501894 L705.4817423472759 408.75522221398205 L704.311086711894 407.78104623657055 L699.4396242317689 409.26691595116426 L694.4047791086014 406.68569356234366 L689.2719043996094 395.05855138327024 L681.8034178143662 394.630993431203 L676.6922008045713 400.25644960495265 L676.6922008045713 400.25644960495265 Z M814.4180694952556 245.4423717344489 L815.1023767978622 254.80948914463625 L813.200678824769 265.3635031965041 L815.3280728210448 268.8051330482649 L815.4337015995679 274.8073482094769 L813.7823970259287 277.34835475131877 L815.5294514275847 282.8939083869991 L813.5434024155238 287.97856725009115 L815.8831938477524 295.6867809725045 L814.4917816644447 298.02406250006425 L811.2594650496358 294.80044487138366 L807.6848048037118 296.88320242005284 L809.827397185385 308.78603481327264 L811.2784630313854 305.85504038693216 L821.1080187884127 300.4364841627612 L835.4875911743693 300.85822140012897 L847.8404588673202 293.90934636733436 L853.1230376724961 295.16397496181526 L856.6764201788665 302.33086221769554 L865.1415408866651 303.79556569704437 L866.7126739773248 305.63226576091984 L871.4538103026462 303.92838382324226 L874.7058848184734 309.9094327492003 L877.8667690219008 308.5018781050312 L882.260622240854 302.6060232759537 L887.3691795332052 304.4056824281415 L891.4389271835153 300.62645112413156 L890.9119231697969 283.0875794395415 L888.373032888836 268.1315176114131 L885.314357827212 263.70830359990396 L886.4758944313635 255.8191185660944 L885.6832986327845 246.8282309874885 L878.330699736216 237.8775592558577 L877.7189647238938 231.78009603601822 L874.8924449992483 229.39201554386455 L873.9626837724463 226.44990884401705 L870.324570267474 225.66040826916833 L866.0781413869008 227.5288576859184 L859.8175464812721 220.90647183186593 L855.3606199629139 220.7419043527916 L852.1514808858465 218.56336958961583 L832.8540909442982 220.8302733849614 L827.6798006350873 223.48663590892102 L824.6298646450759 227.49128761834982 L818.8875346815694 228.25909280207088 L818.5584896376713 230.12701306294184 L815.6502785915054 232.18384197342675 L807.8234900704829 231.50228919835536 L807.66922645868 235.3217363493368 L810.4227939334032 243.2320876183985 L814.4180694952556 245.4423717344489 L814.4180694952556 245.4423717344489 Z"></path>
        </g>
        <g class="layer" fill="#52a3f5" stroke="#b1d9fc" stroke-width="1" font-size="11" font-family="SimSun">
            <g>
                <path autoSize="true"
                      d="M822.9287853592559 377.38527410483584 L819.7435837391859 375.7597072375793 L813.6349726875542 375.7073208053371 L813.6300332123028 376.8121982854209 L807.1707194175815 376.0375140752476 L806.5038902581837 377.6143986014231 L804.422091418106 377.5964073014602 L804.3339407827916 395.0559056038619 L813.8078543214742 395.61628168212155 L813.9822557939278 390.99357590337604 L822.7855405768678 390.2342372137555 L823.2027362560784 399.9283729585695 L826.9529378533643 399.98922588491587 L826.9552176111738 404.40873580525476 L830.6412060301536 404.21718137623793 L830.6495651421228 406.8925935119205 L832.4505738119442 406.90370578542934 L832.4509537715785 408.44090362050883 L836.1905164990912 408.6906651964673 L836.1016059445028 400.28925726959096 L834.916131883354 400.3046027901473 L836.1468211410629 398.6462282582579 L833.2222718305966 378.91665122521954 L832.0512362355767 377.649322889587 L824.6503824653682 379.1341342924188 L824.5048579251688 377.3006091638308 L822.9287853592559 377.38527410483584 L822.9287853592559 377.38527410483584 Z"
                      key="610102" id="mapid-610102-outline"></path>
                <text x="820.2844562795854" y="392.1989930009022" ox="820.2844562795854" oy="392.1989930009022"
                      fill="#1a6bbc" stroke="none" stroke-width="0" text-anchor="middle" alignment-baseline="middle"
                      font-family="Microsoft YaHei" key="610102">新城区
                </text>
            </g>
            <g>
                <path autoSize="true"
                      d="M824.394289671387 399.95271412910733 L823.2027362560784 399.9283729585695 L822.7855405768678 390.2342372137555 L813.9822557939278 390.99357590337604 L813.8994245935046 395.56918680868876 L800.1680633448304 395.40673595314 L800.2246773304469 399.9257271791612 L790.4646541866186 401.92858218975744 L790.2104611908162 406.34438801892975 L798.6307466616854 411.23008427066816 L811.2389472293507 410.78030177159053 L823.1613206558632 404.1663824116313 L826.9552176111738 404.40873580525476 L826.9529378533643 399.98922588491587 L824.394289671387 399.95271412910733 L824.394289671387 399.95271412910733 Z"
                      key="610103" id="mapid-610103-outline"></path>
                <text x="813.5899474708094" y="400.7321607422127" ox="813.5899474708094" oy="400.7321607422127"
                      fill="#1a6bbc" stroke="none" stroke-width="0" text-anchor="middle" alignment-baseline="middle"
                      font-family="Microsoft YaHei" key="610103">碑林区
                </text>
            </g>
            <g>
                <path autoSize="true"
                      d="M776.8970555406249 381.2496995057263 L770.3704888905104 378.8314571283354 L769.1667767668805 379.7617131676034 L769.187294587171 399.0764319897298 L782.4281279470797 399.4071544155213 L783.0022469555443 401.7941765959167 L790.2104611908162 406.34438801892975 L790.4646541866186 401.92858218975744 L800.2246773304469 399.9257271791612 L800.1680633448304 395.40673595314 L804.3441996929378 395.03315190096873 L804.422091418106 377.5964073014602 L785.3952327366696 377.3260086461305 L783.8913525013995 377.6847763336318 L783.2203437860244 381.36823042313154 L776.8970555406249 381.2496995057263 L776.8970555406249 381.2496995057263 Z"
                      key="610104" id="mapid-610104-outline"></path>
                <text x="786.7554882299064" y="391.83519833253195" ox="786.7554882299064" oy="391.83519833253195"
                      fill="#1a6bbc" stroke="none" stroke-width="0" text-anchor="middle" alignment-baseline="middle"
                      font-family="Microsoft YaHei" key="610104">莲湖区
                </text>
            </g>
            <g>
                <path autoSize="true"
                      d="M929.4113331845128 365.21310136805005 L929.5078429317982 363.4520705951945 L925.8188148357422 362.93984770212955 L917.4768010496737 366.1682277337386 L911.9419290468668 362.4175708473176 L910.7184590222205 365.66341302301043 L898.4833788161122 375.570269432088 L874.9034638286612 370.22103262836026 L873.0811774192807 366.0920292868377 L873.4953334214151 355.3295278177484 L863.0475833382716 353.9754179175834 L861.2313762830508 351.91541407181285 L864.0525765728053 340.760278938822 L863.5293721554299 335.18562172967904 L860.7609862549416 330.04010994023884 L869.2154680929616 322.1789701681373 L869.2204075682148 310.9952606175593 L873.2730570349504 309.0971784714566 L871.7414397463308 304.14639604632066 L866.7126739773248 305.63226576091984 L865.1415408866651 303.79556569704437 L856.6764201788665 302.33086221769554 L853.1230376724961 295.16397496181526 L847.8404588673202 293.90934636733436 L833.8123491437254 301.03548862035495 L833.3586773395564 305.29995586748555 L829.4872686187045 310.20734751035343 L828.71899023677 338.01978062974194 L830.8779208827491 348.6399391667692 L837.367251488633 356.3280449656959 L835.2516362410461 358.2547015293894 L836.0138352688209 362.05033666571944 L839.6580281279494 358.6822594814548 L842.2797496093353 360.79835385064143 L839.8958828594477 367.0429224054715 L837.274921297334 366.76723219133237 L836.6757249529655 368.5753578376207 L830.7206175938645 371.9026900190256 L828.5035531237336 370.5983207717054 L827.4822216248995 376.95136628219734 L824.5048579251688 377.3006091638308 L824.6503824653682 379.1341342924188 L832.5326450930988 377.77684945697183 L834.9039731750327 386.3370041482267 L836.1692387595303 399.8542911351906 L842.9127623612185 400.41572552521393 L842.9952136020129 429.51400743608247 L850.0837405522634 446.53695213643914 L851.7589825829073 446.5485935658271 L853.224486895042 444.33301789096186 L857.460656865469 433.73137980977845 L868.1971762712055 439.9844148587108 L881.8042907192357 441.51843775850284 L888.7613516357869 447.7518940398277 L892.2322829013629 448.66098384384713 L886.9763012706371 439.54098223021174 L888.644704027849 435.1299388039679 L893.3938195055052 433.40489063103814 L893.93222230828 431.43378497332196 L888.3460557547496 429.80133907960953 L887.2772293015405 426.81637075338404 L888.2803227378954 424.98390393655427 L894.4877232946255 423.27684706358923 L895.6222827646852 421.45337589674455 L883.5057499646955 411.7359572931564 L882.3875287589399 398.656811375884 L889.223382551927 388.6293074258738 L897.1683385194337 381.68625310777134 L902.1556886882281 379.9675548054165 L904.227608577794 383.9769689177738 L908.4561793555258 377.1265168788923 L915.9752005722185 373.2245214104314 L919.223095532061 369.0325485190351 L929.4113331845128 365.21310136805005 L929.4113331845128 365.21310136805005 Z"
                      key="610111" id="mapid-610111-outline"></path>
                <text x="872.2393768479797" y="371.28516510558984" ox="872.2393768479797" oy="371.28516510558984"
                      fill="#1a6bbc" stroke="none" stroke-width="0" text-anchor="middle" alignment-baseline="middle"
                      font-family="Microsoft YaHei" key="610111">灞桥区
                </text>
            </g>
            <g>
                <path autoSize="true"
                      d="M809.827397185385 308.78603481327264 L799.19764643708 318.20024709689096 L790.279613844381 318.59817231960005 L787.9329831387222 322.29908855318536 L783.2002059253664 325.4211082526581 L776.1219378852602 325.3316809087228 L772.8466858316988 326.4000466330035 L771.2026004911222 328.7722524487217 L767.6222408506728 328.7913020604483 L766.6670223283272 332.20859074166947 L760.7932263311122 338.0748128413943 L753.5344774643854 337.5424820248427 L751.4048037103039 339.0283517394346 L749.9826147965596 349.91520484062494 L746.9980318637663 352.37736715615756 L746.3034656510154 356.4322886743066 L748.3305503036536 370.2030413283974 L748.4380788803501 375.9914775135767 L747.4045886731965 377.1984820787475 L750.8029476484917 377.5387293104013 L751.2490202599583 387.606449107383 L755.4183173346355 388.6695232728507 L754.904991867772 401.5126656670818 L758.2076010150504 399.03357036334455 L769.187294587171 399.0764319897298 L768.9950350118706 380.26388209892684 L770.3704888905104 378.8314571283354 L775.8274691681454 381.16820950001056 L783.2203437860244 381.36823042313154 L783.8913525013995 377.6847763336318 L785.3952327366696 377.3260086461305 L806.5038902581837 377.6143986014231 L807.1707194175815 376.0375140752476 L813.6300332123028 376.8121982854209 L813.6349726875542 375.7073208053371 L827.1117609807916 377.0476726525849 L828.5035531237336 370.5983207717054 L830.7206175938645 371.9026900190256 L836.6757249529655 368.5753578376207 L837.274921297334 366.76723219133237 L839.8958828594477 367.0429224054715 L842.2797496093353 360.79835385064143 L839.6580281279494 358.6822594814548 L836.0138352688209 362.05033666571944 L835.0229005407837 360.6745313744268 L836.2543497177667 359.32571303307486 L835.2516362410461 358.2547015293894 L837.367251488633 356.3280449656959 L831.3217137364081 349.99669484633887 L828.71899023677 338.01978062974194 L829.4872686187045 310.20734751035343 L833.3586773395564 305.29995586748555 L833.8123491437254 301.03548862035495 L822.2847537779598 300.0078678989321 L811.6819801637394 305.56823789928603 L809.827397185385 308.78603481327264 L809.827397185385 308.78603481327264 Z"
                      key="610112" id="mapid-610112-outline"></path>
                <text x="793.6749331425963" y="350.7602667830088" ox="793.6749331425963" oy="350.7602667830088"
                      fill="#1a6bbc" stroke="none" stroke-width="0" text-anchor="middle" alignment-baseline="middle"
                      font-family="Microsoft YaHei" key="610112">未央区
                </text>
            </g>
            <g>
                <path autoSize="true"
                      d="M769.187294587171 399.0764319897298 L758.2076010150504 399.03357036334455 L756.440788712378 401.42852988195955 L754.4099044633858 401.5343610582131 L754.3114949179271 407.73289305137223 L755.564981753736 407.68315239853473 L755.6964477874444 411.12742802970206 L756.7280381964229 411.0364132181239 L756.9058593055961 416.53381366860594 L761.6762525228169 415.72685094967346 L760.0701631457396 424.4690352640846 L761.0052438074345 427.2354622113453 L765.9158421299617 426.5221600833993 L766.1312792429981 437.52807325787035 L774.778780575587 437.63602105764767 L774.792459122451 441.99520720752844 L814.7543337722145 441.69835075813535 L825.1773864790885 440.5199206105535 L830.7061791277338 437.7016363869261 L836.9075003303024 439.51346612438283 L844.9789828562589 434.70132254014425 L842.1953985703731 423.26044323126916 L843.6483642145467 407.24342386120225 L842.6399513432989 399.7341727501407 L834.9199314797042 399.87122412338977 L836.1016059445028 400.28925726959096 L836.1905164990912 408.6906651964673 L832.4509537715785 408.44090362050883 L832.4505738119442 406.90370578542934 L830.6495651421228 406.8925935119205 L830.6412060301536 404.21718137623793 L823.1613206558632 404.1663824116313 L811.3084798425498 410.7660145627942 L798.6926800821875 411.2359049853603 L783.0254244932712 401.8142845194034 L782.4281279470797 399.4071544155213 L769.187294587171 399.0764319897298 L769.187294587171 399.0764319897298 Z"
                      key="610113" id="mapid-610113-outline"></path>
                <text x="801.9358255465941" y="420.5143887854392" ox="801.9358255465941" oy="420.5143887854392"
                      fill="#1a6bbc" stroke="none" stroke-width="0" text-anchor="middle" alignment-baseline="middle"
                      font-family="Microsoft YaHei" key="610113">雁塔区
                </text>
            </g>
            <g>
                <path autoSize="true"
                      d="M890.385299115711 166.28223936456016 L889.1185136926706 178.6644869862066 L883.8830498822317 186.12293913266512 L883.7865401349463 189.85877965440886 L886.5260491031804 189.43175085822804 L894.126001722123 196.9346520987092 L894.6541456147515 201.0398434255785 L898.8071044251174 204.54391367132848 L899.8485737846077 211.37849103377084 L905.317712770564 218.48399620742566 L916.9535966322983 220.89218462307144 L940.4780375130413 218.70200843050588 L944.235078383761 216.99124746637062 L945.1032861496988 215.0307249262769 L954.4214162380376 212.6960891781273 L952.7191970733111 193.73749226409745 L959.9448894517955 192.16378267320943 L959.5276937725848 188.168655769643 L986.4493537497128 184.0465314545727 L985.2722388005295 171.64999662413356 L988.7443099450138 171.16158574572364 L989.3343872581445 169.70270298107062 L984.5902112557342 160.50068220583853 L985.3581096780417 156.6463107666932 L988.1386542868513 154.18361929527236 L984.4443067559023 149.92656023048585 L982.9328273279352 142.57393926027726 L980.779596076487 139.36196306098827 L977.3071449723702 140.5901338614094 L969.8549966514347 139.35085078748125 L967.0440552718283 142.45276256346915 L963.9948792010819 141.5468476947408 L962.9986250381589 139.55616326941163 L960.8252559260491 153.38671053808866 L957.2095600395478 157.1865789214662 L956.0035681581085 161.20922193085607 L948.2223747932767 164.9376542702612 L940.8249406597806 165.6795308157998 L938.5109864827318 168.61052524213665 L933.1793928846382 168.69942343018738 L931.5353075440707 164.08624245730607 L929.8042114470827 163.4078646175185 L925.1272883000674 165.9462253799593 L920.6878399249235 163.02052251243185 L916.2506713075836 168.97934689137765 L913.4883647612514 166.55687126694102 L902.6982710469874 162.73107424538102 L894.4721449495883 162.3273283079743 L890.385299115711 166.28223936456016 L890.385299115711 166.28223936456016 Z"
                      key="610114" id="mapid-610114-outline"></path>
                <text x="937.7839337211954" y="180.12151770527635" ox="937.7839337211954" oy="180.12151770527635"
                      fill="#1a6bbc" stroke="none" stroke-width="0" text-anchor="middle" alignment-baseline="middle"
                      font-family="Microsoft YaHei" key="610114">阎良区
                </text>
            </g>
            <g>
                <path autoSize="true"
                      d="M972.7757463655544 356.45451322132067 L973.5991188945645 354.7347566072003 L978.2543843423864 357.47842985157513 L985.1529314751479 370.46232771021823 L996.2200157633142 363.19278421337367 L996.3700998191362 355.1411483240154 L998.459117892271 347.7260869598231 L997.3800325289212 343.53834731547613 L999.4990674132259 338.84050140158797 L1000.9258158425873 329.2458469624562 L999.3596222271826 328.6791210136216 L1000.6252677713146 325.91110659871083 L999.8098743946393 324.40089571357566 L994.0113104051561 322.3059675796394 L994.4045686273657 317.47742016308075 L992.6806917634385 313.3838702655994 L985.7525077791524 309.01727593338364 L985.8889132881122 303.01717739569904 L984.1540175947775 301.179948175939 L985.7479482635335 298.31933148180906 L982.2382611151879 293.6209564120418 L981.5740916732357 288.8707240659078 L979.5534663343915 286.89908925231066 L974.5322997580879 286.3164886270333 L972.5515701809145 281.9583607889199 L972.6632783136029 277.90026433548155 L976.1710656637697 268.7628005777642 L980.7902349462674 267.43038606873415 L974.7933320273205 260.9889715260724 L974.0109951388895 250.90484789676702 L983.5320236723073 248.60778221618784 L992.1704059736603 239.15599986500092 L995.2974737695749 239.04276050640874 L989.0440980970143 208.2554130225344 L989.2329380355986 201.13720810773157 L986.4493537497128 184.0465314545727 L959.5276937725848 188.168655769643 L959.9448894517955 192.16378267320943 L952.7191970733111 193.73749226409745 L954.4214162380376 212.6960891781273 L945.1032861496988 215.0307249262769 L944.235078383761 216.99124746637062 L940.4780375130413 218.70200843050588 L922.4668109359118 221.01812372280983 L905.317712770564 218.48399620742566 L899.8485737846077 211.37849103377084 L897.7926121997134 202.52412567253486 L894.6541456147515 201.0398434255785 L894.126001722123 196.9346520987092 L886.5260491031804 189.43175085822804 L883.7865401349463 189.85877965440886 L882.8696975357307 192.70563829562707 L877.8732283356985 193.78723291693677 L876.0604409171865 202.25002292603858 L877.0285780671275 221.28905153401865 L874.8924449992483 229.39201554386455 L877.7189647238938 231.78009603601822 L878.330699736216 237.8775592558577 L885.6832986327845 246.8282309874885 L886.4758944313635 255.8191185660944 L885.314357827212 263.70830359990396 L888.373032888836 268.1315176114131 L891.1106420588931 284.63006883343587 L890.3659211743216 289.25224545630226 L891.6786817131906 299.98405588427704 L887.5378816111388 304.3517085282547 L882.260622240854 302.6060232759537 L877.0243985111447 309.221000947673 L869.2204075682148 310.9952606175593 L869.2154680929616 322.1789701681373 L860.7609862549416 330.04010994023884 L863.5293721554299 335.18562172967904 L864.0525765728053 340.760278938822 L861.658830872404 353.25206182789407 L872.9747887214908 354.6897783572949 L873.9550845797457 356.9614445555726 L873.2966145323189 367.5593785455876 L876.00534677012 370.6565279186452 L898.4833788161122 375.570269432088 L910.7184590222205 365.66341302301043 L911.9419290468668 362.4175708473176 L917.4768010496737 366.1682277337386 L925.8188148357422 362.93984770212955 L929.5078429317982 363.4520705951945 L929.554577966901 366.9402661645054 L931.815337795053 371.72912688997167 L936.1077417914639 374.59979754584674 L937.0340833815535 379.4368114565077 L943.8972942682612 379.64794465312843 L950.1385112324988 382.4979782296341 L951.6868467450604 380.56391348360194 L955.8021895515703 381.4354332200528 L961.0767892044096 386.32324609531315 L964.195497888355 382.7974804584301 L962.1771523073203 377.9916867447646 L962.6798389044034 375.0643964095998 L969.8572764092496 365.0358341478259 L972.7757463655544 356.45451322132067 L972.7757463655544 356.45451322132067 Z"
                      key="610115" id="mapid-610115-outline"></path>
                <text x="932.8214709084932" y="285.18488877494565" ox="932.8214709084932" oy="285.18488877494565"
                      fill="#1a6bbc" stroke="none" stroke-width="0" text-anchor="middle" alignment-baseline="middle"
                      font-family="Microsoft YaHei" key="610115">临潼区
                </text>
            </g>
            <g>
                <path autoSize="true"
                      d="M885.7383927798583 444.57960453163287 L881.8042907192357 441.51843775850284 L868.1971762712055 439.9844148587108 L857.460656865469 433.73137980977845 L851.7589825829073 446.5485935658271 L850.0837405522634 446.53695213643914 L844.9789828562589 434.70132254014425 L836.9075003303024 439.51346612438283 L830.7061791277338 437.7016363869261 L825.1773864790885 440.5199206105535 L814.7543337722145 441.69835075813535 L774.792459122451 441.99520720752844 L774.778780575587 437.63602105764767 L766.1312792429981 437.52807325787035 L765.9158421299617 426.5221600833993 L761.0052438074345 427.2354622113453 L760.0701631457396 424.4690352640846 L761.6762525228169 415.72685094967346 L756.9058593055961 416.53381366860594 L756.7280381964229 411.0364132181239 L755.6964477874444 411.12742802970206 L755.564981753736 407.68315239853473 L754.3114949179271 407.73289305137223 L755.4183173346355 388.6695232728507 L751.2490202599583 387.606449107383 L750.8029476484917 377.5387293104013 L729.6445154147896 375.9687238106835 L728.6152047636206 377.0778345378221 L731.3516740547766 381.4634784817572 L728.6881570135374 386.6047570241499 L725.0044483523725 382.79060143197603 L722.9211296737576 383.29594529858696 L721.2797040506266 386.15074127801927 L710.2559351608452 388.1784666150379 L709.1529123404907 391.17295974712397 L711.5462780812522 397.3868372608413 L707.5418834881566 398.41604544990696 L706.8955721490511 407.23971977003384 L702.7893483737826 404.2351726762008 L698.8465072415602 403.55150327760384 L694.267613680373 394.7601074662325 L689.2719043996094 395.05855138327024 L694.4047791086014 406.68569356234366 L699.4396242317689 409.26691595116426 L704.311086711894 407.78104623657055 L705.7154175227897 409.23252081888313 L702.7977074857536 415.4749727501894 L698.2594696055075 417.96835526272116 L697.940303512125 420.27177081387526 L700.3374688492349 423.7853658654876 L705.1507975052064 439.133532201633 L708.7938504854319 444.19914145300027 L715.9526699681555 446.17183457836654 L714.3310022460464 449.6938961240776 L716.6122798944907 454.31078118813093 L716.9059886923314 463.90437731550264 L721.443466653307 464.68382392860804 L724.3167214130499 471.5400966821835 L731.7418925998991 471.7263595523891 L734.8397035039197 479.7584166741399 L730.2908267538951 480.3182635965186 L728.7557898285668 481.9713465695986 L726.7241456603078 503.2381214377165 L732.7081299516649 513.6614339869102 L734.1755340619711 526.7675668541306 L733.4319530563062 529.7747597273701 L735.3800061048678 531.4363091945488 L733.661068716201 535.6325153329963 L737.6988997571716 541.0770001953515 L737.4352077704953 546.4442282990422 L734.2868622350215 548.2999779746442 L737.3679549151057 555.8055249945355 L736.1843806521283 556.6251874546197 L737.0522084584336 561.0494597778888 L738.4409609242957 561.012418866203 L736.6353927388536 563.493630793464 L737.9747504521692 564.1614255156219 L737.5583146922309 568.2137012543626 L735.2379012013862 571.4018654389947 L735.8549556485959 573.7952374899669 L733.9988528317026 575.369476236734 L734.3058602167712 578.3581486541298 L727.0790279593821 583.0819232062004 L727.5957730629561 588.6957379505639 L722.8462776256656 599.9339505569078 L716.6175993293782 606.1705817735201 L708.9716715946015 622.6548457867466 L711.9592942044783 623.9581567223122 L717.123325603543 622.3939719372847 L725.5390515587951 616.5796071139248 L727.8944213360573 618.336404639731 L731.8026861414965 617.8956177906366 L732.7548649867695 622.6527291632246 L730.8740647935956 629.3296180730504 L736.5309038392334 636.2515061559025 L738.7304901661555 635.0138105496189 L740.8122890062277 635.9731701623587 L743.5502781359191 633.9745483988117 L746.4786270427412 634.89316300869 L750.6874399194548 631.3779804894348 L750.7223962058724 629.4968313315312 L753.3536166781323 631.7880762974164 L759.3505195970774 627.3754454035297 L764.8511952327353 630.3572387944714 L765.6688683672237 627.4574645651264 L768.7841574144513 624.4492133801232 L772.9842312195615 627.0796472659058 L776.2325061390366 626.1488620707569 L780.5982423450023 621.4473120656985 L788.6609857993535 616.6330518579325 L791.5942741814251 612.9099110773386 L793.5142102169993 602.366480143095 L803.3365467409621 603.1305812356441 L810.8559479172873 597.8887630758127 L815.9971817382502 599.1174630321166 L820.5282003854263 597.8003940436429 L823.1218048538267 594.4741201739962 L828.6760547980175 593.8560661046777 L837.9873456129262 583.3613175115115 L841.0513401094358 574.7921671702752 L843.1403581825725 573.2978309615737 L850.3120962928897 576.842646210187 L855.2789286413936 575.5329854040465 L857.4287402561313 579.9561994155574 L860.5098329362154 581.9521753996996 L865.4474083928271 581.5447253711209 L869.097300646481 585.8123675535389 L870.3982824366649 597.3987647297599 L873.9319070420115 597.396648106238 L877.308988277744 600.1524919358744 L880.0260796275161 598.4692470775626 L883.949922777987 598.3089128455376 L886.162427732499 601.0176618017449 L890.2139373203263 599.0544934822447 L895.2666405463424 599.1291044615027 L900.0529920682311 602.6564575660304 L907.913217037134 602.6691573071785 L912.5103486608059 597.15535302438 L910.2887246750543 591.9553381791684 L909.9817172899911 586.0965242617822 L903.3654801660177 581.3674581508967 L903.8347303152204 568.9476404616817 L905.6592964824122 565.6277164626117 L906.3173865702047 554.3032514476163 L903.1390242235684 549.0709580936509 L899.6608737249298 546.4749193401567 L895.0759008095811 535.6145240330352 L892.7228107901283 534.0900259391019 L889.9890012164178 526.006640696869 L889.9745627502889 517.8354155783454 L887.5093846385189 509.5440720747756 L873.7396474667075 483.7720640335501 L877.2402155838154 480.2129615761478 L879.8911939570971 480.07432273525774 L884.6209314933694 485.4516048006899 L887.8901041927711 486.3516989547279 L895.0299256937451 480.73206349567045 L901.6043672578671 480.4881226344096 L904.7774101696159 476.8533508859855 L904.8005877073501 473.61068364558014 L902.108573693491 468.9239500052008 L894.7464758060505 464.8028840018924 L891.9020979785619 462.2835728511818 L891.8086279083564 460.4071860962067 L887.635911196965 458.4043310856141 L892.2322829013629 448.66098384384713 L888.7613516357869 447.7518940398277 L885.7383927798583 444.57960453163287 L885.7383927798583 444.57960453163287 Z"
                      key="610116" id="mapid-610116-outline"></path>
                <text x="807.1167651494143" y="506.1101149832939" ox="807.1167651494143" oy="506.1101149832939"
                      fill="#1a6bbc" stroke="none" stroke-width="0" text-anchor="middle" alignment-baseline="middle"
                      font-family="Microsoft YaHei" key="610116">长安区
                </text>
            </g>
            <g>
                <path autoSize="true"
                      d="M972.7757463655544 356.45451322132067 L969.8572764092496 365.0358341478259 L962.6798389044034 375.0643964095998 L962.1771523073203 377.9916867447646 L964.195497888355 382.7974804584301 L961.526281452594 386.1846072544231 L955.8021895515703 381.4354332200528 L951.6868467450604 380.56391348360194 L950.1385112324988 382.4979782296341 L943.8972942682612 379.64794465312843 L937.5291707859324 379.791875052837 L936.1077417914639 374.59979754584674 L931.815337795053 371.72912688997167 L929.4113331845128 365.21310136805005 L919.223095532061 369.0325485190351 L915.9752005722185 373.2245214104314 L908.4561793555258 377.1265168788923 L904.3845319070424 383.887012417963 L901.2897606800998 380.0194120817814 L897.1683385194337 381.68625310777134 L889.223382551927 388.6293074258738 L882.3875287589399 398.656811375884 L883.0410593311062 410.7072782599753 L895.6222827646852 421.45337589674455 L894.4877232946255 423.27684706358923 L888.2803227378954 424.98390393655427 L887.2772293015405 426.81637075338404 L888.3460557547496 429.80133907960953 L893.9808571415597 431.6750800551781 L893.2121987999835 433.52712563960995 L888.644704027849 435.1299388039679 L886.9763012706371 439.54098223021174 L892.3002956760247 448.11595328614203 L887.5580194717968 458.2201848389341 L891.8086279083564 460.4071860962067 L891.9020979785619 462.2835728511818 L894.7464758060505 464.8028840018924 L901.6150061276476 468.40220230627165 L904.9662501082021 475.978656214249 L901.6043672578671 480.4881226344096 L895.0299256937451 480.73206349567045 L887.8901041927711 486.3516989547279 L884.6209314933694 485.4516048006899 L879.8911939570971 480.07432273525774 L877.2402155838154 480.2129615761478 L873.7396474667075 483.7720640335501 L887.5093846385189 509.5440720747756 L889.9745627502889 517.8354155783454 L889.9890012164178 526.006640696869 L892.7228107901283 534.0900259391019 L895.0759008095811 535.6145240330352 L899.6608737249298 546.4749193401567 L903.1390242235684 549.0709580936509 L906.3173865702047 554.3032514476163 L905.6592964824122 565.6277164626117 L903.8347303152204 568.9476404616817 L903.3654801660177 581.3674581508967 L909.9817172899911 586.0965242617822 L910.2887246750543 591.9553381791684 L912.17218458567 596.811401701556 L917.6903383645349 598.01205639615 L920.2702642860731 596.0123763208394 L926.1262021804378 598.7634577475455 L930.7582900905236 598.9460165265846 L934.5343289429948 601.3441509804834 L938.4346145961026 608.532733627495 L944.9159660496498 609.4360027168204 L950.2935347635757 604.8334048615579 L953.3605689371634 605.5128410131074 L959.7970851537866 602.796683874567 L968.3826530658735 610.7520133935323 L974.1219433523056 610.553050782175 L976.1912035244222 614.5682856092262 L992.0529984464501 615.1318366227788 L995.156128785362 617.8919136994646 L997.5095987644472 614.5301863857767 L999.9895953019877 615.0387051876733 L1001.0838790507405 612.5320937781125 L1003.873922650424 610.9716130842553 L1017.7914641202406 613.2760869471749 L1019.8185487728806 608.8586936503561 L1028.133585424861 606.2626548968619 L1029.7556331066044 598.4777135716613 L1033.7626874171438 596.6473633783589 L1038.5338405536313 589.5931863251935 L1043.4015034374079 586.7002911223062 L1050.2137997330265 586.8786166542923 L1052.110938190499 578.7454907592182 L1051.3931944400192 571.4145651801482 L1052.9719267233759 566.5966008812102 L1052.4331439609668 563.0163321885611 L1045.1424784849023 556.5955547252688 L1038.4122534704366 553.2946803379236 L1027.171907588714 542.6972755037932 L1029.610108566405 537.8554991901983 L1028.2726506512663 534.8049155346944 L1030.4631179469452 532.2459176928878 L1031.8507305339062 518.9429388378394 L1037.7066684282727 514.6287309378695 L1034.831133910715 510.2303872527755 L1034.8102361307938 506.80992363626865 L1039.0144894918885 502.92962355893724 L1039.9526098306596 498.2375983597449 L1043.3809856171156 497.7777618989203 L1046.9043513123215 494.27739574434236 L1065.571008259798 492.8074007061841 L1066.5368656519258 487.38566954672024 L1072.5204699836431 484.43456719689675 L1074.8568417791612 476.7808565302512 L1080.0467104334039 479.6451773155477 L1087.8993362096062 475.32514870088744 L1089.9613771486656 472.18990010437847 L1092.6792284177009 477.58623178154085 L1096.6266290655458 476.70889133039964 L1101.3886631707974 481.693010576053 L1104.9580039818338 481.6945980436958 L1106.7232964459654 467.86934233383545 L1113.0450648528222 463.86733640381317 L1121.6541902622848 447.45186265515076 L1126.6939748607037 447.93709859827504 L1124.310488070456 451.78776594625015 L1124.7744187847711 455.9887344876279 L1130.1322295976734 451.31417143251747 L1134.5226631799087 454.23246611770446 L1137 450.6400268397847 L1132.6760593538856 444.39704575259384 L1128.1799969931271 447.3836015464676 L1120.143090793954 435.5828962383348 L1116.0494056866391 434.3695418025891 L1112.4325699212313 435.53421389725554 L1107.7993421322371 433.6271361011695 L1113.2734205934503 425.3479631828686 L1113.596386283185 421.13852814738857 L1106.1643758229075 418.55677660269066 L1102.3552804821957 407.7794587689259 L1098.749843505835 408.0260454095933 L1086.8525474152284 403.9510159679594 L1078.5390306017907 406.2761269102448 L1073.3313038447031 401.9449860220775 L1069.8067982705961 402.9461489494315 L1065.518953789806 406.74231324164066 L1043.2939748607077 393.3213326250698 L1037.4399367645128 392.607501341241 L1033.9895233192292 396.03643145184833 L1027.6297589488713 395.36704926204766 L1023.8248431641459 397.0397110027334 L1020.4603005963654 393.2361385281856 L1014.5355900080685 390.6326915923528 L1005.3705836526242 380.4739569837893 L1004.5107349986574 376.5957735299853 L998.3998441892181 374.8802501629161 L998.5715859442298 368.6372690757307 L996.2200157633142 363.19278421337367 L985.1529314751479 370.46232771021823 L978.2543843423864 357.47842985157513 L973.5991188945645 354.7347566072003 L972.7757463655544 356.45451322132067 L972.7757463655544 356.45451322132067 Z"
                      key="610122" id="mapid-610122-outline"></path>
                <text x="970.1382565593176" y="486.31333515333245" ox="970.1382565593176" oy="486.31333515333245"
                      fill="#1a6bbc" stroke="none" stroke-width="0" text-anchor="middle" alignment-baseline="middle"
                      font-family="Microsoft YaHei" key="610122">蓝田县
                </text>
            </g>
            <g>
                <path autoSize="true"
                      d="M587.0205870695263 422.789494496943 L581.579565096561 426.8650530944615 L573.8048310455288 429.1330152015744 L569.8152548781982 428.6916991965918 L563.3019868153133 424.0425356237811 L556.3665835979573 421.77616098431463 L550.8252522813564 422.7259957911883 L543.54028619981 427.6402664605139 L537.8082151464496 427.21270850845394 L517.002765413652 413.70917957439997 L503.84362337526545 413.7128836655702 L498.9189665462418 416.855011288535 L495.0281798840115 417.16827157024454 L486.23857364793366 410.86655418023656 L478.373029244136 407.611187198685 L455.1514161924788 411.3734855144903 L456.25253921466174 418.37051373248323 L453.3249502271119 432.07300527789084 L453.8633530298848 436.8629243151172 L444.2849505915801 454.0043999328809 L445.4449673571853 460.60720701932587 L443.567966760369 472.2290576395935 L444.0702733978178 478.3132919624004 L438.92486002086844 487.8058193164452 L433.8425199433259 492.7274981681112 L433.2854991184413 501.64430392334 L428.9467400465619 504.60969348195977 L427.3927051394785 508.69266026181685 L422.97225474607694 510.4584534376045 L421.87683111842125 518.5413095239564 L423.0433071978241 522.9613486001781 L422.4517100461526 528.7704218647268 L425.57725800353 540.5679522375722 L422.4889460903796 541.8442762231898 L414.142752748332 540.9764605779092 L412.54654232176654 540.0821871385706 L408.91298833241854 532.1787148959666 L405.26347603839713 531.4225511416353 L395.38186581138143 537.8634365284161 L390.73077991954597 544.4678310825111 L386.2962710196498 545.8616276737685 L380.20361827268607 540.9854562278906 L378.96912941862684 538.0777446603315 L372.10705841082563 535.3949243423049 L368.2934035544895 540.3536441056604 L364.38703854722553 541.2299262450397 L362.28244212905156 543.4095193199755 L354.8861478744584 558.9651147615805 L339.3412392880109 570.1636406768339 L329.4706478904027 568.6661295328486 L328.9596021813504 581.9521753996996 L324.9582472653383 607.0563887187618 L330.55809236572895 607.3622408181345 L332.7949147368781 609.0264360647197 L333.8960377590611 613.8999617311893 L332.45295106539197 616.5087002258315 L332.48752739217525 620.841428581647 L326.3310414265343 625.1318244669601 L321.9033718000719 632.4622208901492 L320.46674442019685 638.9681924503275 L322.54398374465745 647.1029058130443 L321.90945115423347 649.5079192934008 L316.86054752456766 655.0709350731613 L316.9057627211314 658.6464413628837 L307.52189961594013 665.9879500595816 L303 680.8201894114918 L307.1313011111797 681.6118066098679 L309.3335471555456 686.500148641011 L317.166794990364 690.4513556064321 L323.7256582094524 688.3125075343505 L325.7398242345025 681.2599179488243 L327.81212408370084 679.3247948910303 L337.96692528827225 677.8928990763234 L343.85933930759893 681.6303270657099 L351.27007202832465 682.881780724907 L355.59857219005244 680.5746610825827 L362.94357189392395 682.8368024749998 L369.5020551533762 686.9118319166373 L373.41715923224547 685.0904773733164 L381.1576969161342 693.647457129282 L385.8361399016849 692.8748895426324 L388.8218627133865 694.6491492125224 L392.2164220923278 692.0949137736443 L395.41948181524276 683.1405379508487 L398.9557661380368 681.3334706163187 L402.6862098343063 674.5428131920198 L403.6798042797891 669.1110280708181 L407.1473159086472 664.9926078469143 L414.1590910126379 674.253364924969 L419.58985407545515 674.8862353589648 L420.8087645844844 671.7763862447591 L426.76653166102915 667.5066274388137 L431.7193055030366 673.1241462743474 L437.8689521952492 673.2273316711926 L445.82074743618614 676.8292957549784 L447.66697130256944 675.9090936774537 L465.2203465195453 686.3906133735873 L467.7721554280906 685.3185435581418 L472.7530462830928 678.9390402535864 L475.86187601653 677.8294003705687 L482.21176143637604 679.0205302593022 L488.23374169123235 684.4295616776126 L495.04147847123386 679.3851186614975 L501.2853551529206 684.8973354766513 L504.59784325070905 683.5464005117774 L506.7385358342017 685.0449699675264 L510.27671995517267 684.0014745696699 L513.0842416980686 685.3137811552115 L516.1664742570556 683.4178156326325 L517.6593356629037 677.4865073595101 L523.6072237889366 679.492537305392 L527.6876103090271 675.637107554483 L535.1758547952813 675.8678195187149 L542.5964664665134 664.7703623767848 L542.6428215419819 661.9870024413194 L549.5755650418887 658.7559766303038 L552.0057868672484 655.83027376278 L562.084976104461 658.205125357903 L567.53853674538 653.6681428319225 L570.2313106785095 648.4099208397729 L575.3706447012955 645.9472293683575 L576.0393736588703 641.5139613950996 L585.7203651986129 641.6197925713532 L590.2711417468126 629.2719400819933 L590.2984988405315 623.0871661417441 L598.2191373914047 610.82186196986 L601.9055057700098 607.5945402500074 L602.1676779181525 604.4725205505365 L606.4384242153683 596.7801815045605 L605.9923516038962 590.2948470237534 L612.9965275151826 580.2625806708111 L612.787169756306 571.145224836584 L611.4383130521182 566.8416000542402 L608.6102734889337 566.0330498676631 L607.4160603561795 562.4400814338605 L607.6105996892911 545.2795562043739 L609.9500111618872 537.7380265845586 L616.2075663904307 526.6850185366548 L614.5197856918348 521.5760185030231 L616.5214130489258 513.2746210377081 L620.8043180544628 508.62863240018305 L620.8917087705104 501.05852836278063 L618.047710902656 493.761468760109 L621.1455218066785 469.3589161396012 L627.7807569123961 452.0274735604653 L630.1570244695831 440.5749528222059 L628.8784602978612 436.47029065121933 L629.9841428356649 432.583640703313 L633.6545529096111 430.5897813426982 L640.4223939279364 431.7475744109088 L640.8407294860554 427.1396849968387 L640.488506904423 424.38807441424797 L637.084828494244 419.50555309780066 L638.4154471359543 414.98603271589855 L623.1859050465428 423.3250002487821 L617.7103067467888 421.71213312268264 L607.3693253210749 427.21535428786046 L603.4663799505233 424.0367149090871 L587.0205870695263 422.789494496943 L587.0205870695263 422.789494496943 Z"
                      key="610124" id="mapid-610124-outline"></path>
                <text x="484.84925124261827" y="551.1301682056037" ox="484.84925124261827" oy="551.1301682056037"
                      fill="#1a6bbc" stroke="none" stroke-width="0" text-anchor="middle" alignment-baseline="middle"
                      font-family="Microsoft YaHei" key="610124">周至县
                </text>
            </g>
            <g>
                <path autoSize="true"
                      d="M676.6922008045713 400.25644960495265 L668.2179610655276 406.89100604427585 L663.1477796963063 406.41582406289854 L659.1578235693469 411.88782503108087 L650.6151910960052 414.69023457826916 L638.4154471359543 414.98603271589855 L637.084828494244 419.50555309780066 L640.488506904423 424.38807441424797 L640.7126830890629 431.44965964975563 L633.6545529096111 430.5897813426982 L629.9841428356649 432.583640703313 L629.1843278040233 434.5700918815892 L630.1570244695831 440.5749528222059 L627.7807569123961 452.0274735604653 L621.1455218066785 469.3589161396012 L618.2886053112379 489.2509440281883 L618.047710902656 493.761468760109 L620.8917087705104 501.05852836278063 L620.8043180544628 508.62863240018305 L616.5214130489258 513.2746210377081 L614.5197856918348 521.5760185030231 L616.2075663904307 526.6850185366548 L609.9500111618872 537.7380265845586 L607.6105996892911 545.2795562043739 L607.4160603561795 562.4400814338605 L608.6102734889337 566.0330498676631 L611.4383130521182 566.8416000542402 L612.787169756306 571.145224836584 L612.9965275151826 580.2625806708111 L605.9923516038962 590.2948470237534 L606.4384242153683 596.7801815045605 L602.1676779181525 604.4725205505365 L601.9055057700098 607.5945402500074 L598.2191373914047 610.82186196986 L590.2984988405315 623.0871661417441 L590.2711417468126 629.2719400819933 L585.7203651986129 641.6197925713532 L587.7417504567238 647.7384220264466 L593.4270864749888 650.1556060920739 L598.3787204380933 657.6182914855799 L601.146346419313 657.0166412485796 L602.0331722073661 653.4522472323642 L612.7761509268912 648.0633237375423 L615.3613962833206 643.492475235158 L621.7743550025771 638.0818563492066 L624.7513387426734 638.4813690395622 L629.4529592659583 635.5646618220162 L635.5478917707314 639.810079457422 L651.204128530233 644.5142752418869 L652.0624573456607 648.5760757864937 L654.8323630846899 650.7091031438777 L657.547554636285 657.0616194984887 L666.5518380661251 657.1648048953357 L668.7863806794649 654.1380332544868 L667.5169355389826 649.001517115028 L673.4788821715119 642.8908249981614 L675.7069654710558 633.8163307903105 L678.8769687057247 631.5589518008292 L678.759941138147 625.0386930318564 L689.2377080324604 620.4249829030905 L691.9973548613434 616.6161188697297 L694.0327986259526 618.9369965649694 L701.0757304200088 620.1619924300976 L706.0459824052305 619.0264239089029 L708.8234873369602 620.3556634826455 L708.7908108083484 621.9918134675208 L710.2965908417882 621.2488786102203 L716.6175993293782 606.1705817735201 L722.8462776256656 599.9339505569078 L727.5957730629561 588.6957379505639 L727.0790279593821 583.0819232062004 L734.3058602167712 578.3581486541298 L733.9988528317026 575.369476236734 L735.8549556485959 573.7952374899669 L735.2379012013862 571.4018654389947 L737.2995621808077 569.6429512896666 L737.9747504521692 564.1614255156219 L736.6353927388536 563.493630793464 L738.4409609242957 561.012418866203 L737.0522084584336 561.0494597778888 L736.1843806521283 556.6251874546197 L737.3679549151057 555.8055249945355 L734.2868622350215 548.2999779746442 L737.4352077704953 546.4442282990422 L737.6988997571716 541.0770001953515 L733.661068716201 535.6325153329963 L735.3800061048678 531.4363091945488 L733.4319530563062 529.7747597273701 L734.1755340619711 526.7675668541306 L732.7081299516649 513.6614339869102 L726.7241456603078 503.2381214377165 L728.7557898285668 481.9713465695986 L730.2908267538951 480.3182635965186 L734.8670605976386 480.263760540749 L734.5414351904601 478.9234086935012 L731.7418925998991 471.7263595523891 L724.3167214130499 471.5400966821835 L721.443466653307 464.68382392860804 L717.2973471163641 464.50973164367133 L716.3045125901517 452.73865906488936 L714.3310022460464 449.6938961240776 L715.9526699681555 446.17183457836654 L708.7938504854319 444.19914145300027 L704.8912850745146 438.6266008673829 L697.8396142088532 419.0637079369426 L702.7977074857536 415.4749727501894 L705.4817423472759 408.75522221398205 L704.311086711894 407.78104623657055 L699.4396242317689 409.26691595116426 L694.4047791086014 406.68569356234366 L689.2719043996094 395.05855138327024 L681.8034178143662 394.630993431203 L676.6922008045713 400.25644960495265 L676.6922008045713 400.25644960495265 Z"
                      key="610125" id="mapid-610125-outline"></path>
                <text x="674.3476598768993" y="526.1246424583915" ox="674.3476598768993" oy="526.1246424583915"
                      fill="#1a6bbc" stroke="none" stroke-width="0" text-anchor="middle" alignment-baseline="middle"
                      font-family="Microsoft YaHei" key="610125">户县
                </text>
            </g>
            <g>
                <path autoSize="true"
                      d="M814.4180694952556 245.4423717344489 L815.1023767978622 254.80948914463625 L813.200678824769 265.3635031965041 L815.3280728210448 268.8051330482649 L815.4337015995679 274.8073482094769 L813.7823970259287 277.34835475131877 L815.5294514275847 282.8939083869991 L813.5434024155238 287.97856725009115 L815.8831938477524 295.6867809725045 L814.4917816644447 298.02406250006425 L811.2594650496358 294.80044487138366 L807.6848048037118 296.88320242005284 L809.827397185385 308.78603481327264 L811.2784630313854 305.85504038693216 L821.1080187884127 300.4364841627612 L835.4875911743693 300.85822140012897 L847.8404588673202 293.90934636733436 L853.1230376724961 295.16397496181526 L856.6764201788665 302.33086221769554 L865.1415408866651 303.79556569704437 L866.7126739773248 305.63226576091984 L871.4538103026462 303.92838382324226 L874.7058848184734 309.9094327492003 L877.8667690219008 308.5018781050312 L882.260622240854 302.6060232759537 L887.3691795332052 304.4056824281415 L891.4389271835153 300.62645112413156 L890.9119231697969 283.0875794395415 L888.373032888836 268.1315176114131 L885.314357827212 263.70830359990396 L886.4758944313635 255.8191185660944 L885.6832986327845 246.8282309874885 L878.330699736216 237.8775592558577 L877.7189647238938 231.78009603601822 L874.8924449992483 229.39201554386455 L873.9626837724463 226.44990884401705 L870.324570267474 225.66040826916833 L866.0781413869008 227.5288576859184 L859.8175464812721 220.90647183186593 L855.3606199629139 220.7419043527916 L852.1514808858465 218.56336958961583 L832.8540909442982 220.8302733849614 L827.6798006350873 223.48663590892102 L824.6298646450759 227.49128761834982 L818.8875346815694 228.25909280207088 L818.5584896376713 230.12701306294184 L815.6502785915054 232.18384197342675 L807.8234900704829 231.50228919835536 L807.66922645868 235.3217363493368 L810.4227939334032 243.2320876183985 L814.4180694952556 245.4423717344489 L814.4180694952556 245.4423717344489 Z"
                      key="610126" id="mapid-610126-outline"></path>
                <text x="851.7377048433518" y="264.23640116940624" ox="851.7377048433518" oy="264.23640116940624"
                      fill="#1a6bbc" stroke="none" stroke-width="0" text-anchor="middle" alignment-baseline="middle"
                      font-family="Microsoft YaHei" key="610126">高陵县
                </text>
            </g>
        </g>
        <g class="layer" fill="#52a3f5" stroke="#b1d9fc" stroke-width="1" font-size="11" font-family="SimSun">
            <circle id="mapid-610000-circle" r="4" cx="809.475165963473" cy="430.7599450240941" fill="#ffcd7a"
                    data-courtname="陕西省高级人民法院"></circle>
            <circle id="mapid-610100-circle" r="4" cx="812.8052529176457" cy="404.318167074729" fill="#ffcd7a"
                    data-courtname="西安铁路运输中级法院"></circle>
            <circle id="mapid-610100-circle" r="4" cx="819.6500467314927" cy="368.385511204704" fill="#ffcd7a"
                    data-courtname="西安市中级人民法院"></circle>
            <circle id="mapid-610103-circle" r="4" cx="795.3388248062474" cy="407.82238614821836" fill="#ffcd7a"
                    data-courtname="西安市碑林区人民法院"></circle>
            <circle id="mapid-610116-circle" r="4" cx="799.191301768511" cy="449.71673390613614" fill="#ffcd7a"
                    data-courtname="西安市长安区人民法院"></circle>
            <circle id="mapid-610114-circle" r="4" cx="908.8442576488287" cy="182.19258534329128" fill="#ffcd7a"
                    data-courtname="西安市阎良区人民法院"></circle>
            <circle id="mapid-610103-circle" r="4" cx="816.5588495264674" cy="405.8956174463383" fill="#ffcd7a"
                    data-courtname="西安铁路运输法院"></circle>
            <circle id="mapid-610113-circle" r="4" cx="808.2516026207395" cy="413.6809792165768" fill="#ffcd7a"
                    data-courtname="西安市雁塔区人民法院"></circle>
            <circle id="mapid-610124-circle" r="4" cx="531.1732814437128" cy="449.2015324782242" fill="#ffcd7a"
                    data-courtname="西安市周至县人民法院"></circle>
            <circle id="mapid-610102-circle" r="4" cx="816.508982696867" cy="380.26426406798055" fill="#ffcd7a"
                    data-courtname="西安市新城区人民法院"></circle>
            <circle id="mapid-610112-circle" r="4" cx="805.4288875991024" cy="375.01394791446" fill="#ffcd7a"
                    data-courtname="西安市未央区人民法院"></circle>
            <circle id="mapid-610115-circle" r="4" cx="905.411501683895" cy="333.6763278827966" fill="#ffcd7a"
                    data-courtname="西安市临潼区人民法院"></circle>
            <circle id="mapid-610125-circle" r="4" cx="681.781989200439" cy="481.5699354055214" fill="#ffcd7a"
                    data-courtname="西安市户县人民法院"></circle>
            <circle id="mapid-610111-circle" r="4" cx="849.952762884479" cy="388.31765599393657" fill="#ffcd7a"
                    data-courtname="西安市灞桥区人民法院"></circle>
            <circle id="mapid-610104-circle" r="4" cx="797.8380710259917" cy="396.4539816628785" fill="#ffcd7a"
                    data-courtname="西安市莲湖区人民法院"></circle>
            <circle id="mapid-610122-circle" r="4" cx="947.7227711506803" cy="452.1830108811846" fill="#ffcd7a"
                    data-courtname="西安市蓝田县人民法院"></circle>
            <circle id="mapid-610126-circle" r="4" cx="857.3855142432476" cy="249.13640134554225" fill="#ffcd7a"
                    data-courtname="西安市高陵县人民法院"></circle>
        </g>
    </g>
</svg>